<svg xmlns="http://www.w3.org/2000/svg" version="1.1" xmlns:xlink="http://www.w3.org/1999/xlink" xmlns:svgjs="http://svgjs.dev/svgjs" width="1500" height="1500" viewBox="0 0 1500 1500"><rect width="1500" height="1500" fill="#ffffff"></rect><g transform="matrix(0.6666666666666666,0,0,0.6666666666666666,249.39436519522388,528.0445343592637)"><svg viewBox="0 0 396 176" data-background-color="#ffffff" preserveAspectRatio="xMidYMid meet" height="666" width="1500" xmlns="http://www.w3.org/2000/svg" xmlns:xlink="http://www.w3.org/1999/xlink"><g id="tight-bounds" transform="matrix(1,0,0,1,0.24008861730862918,-0.01765325952796104)"><svg viewBox="0 0 395.52 176.03502379896523" height="176.03502379896523" width="395.52"><g><svg viewBox="0 0 395.52 176.03502379896523" height="176.03502379896523" width="395.52"><g><svg viewBox="0 0 395.52 176.03502379896523" height="176.03502379896523" width="395.52"><g id="textblocktransform"><svg viewBox="0 0 395.52 176.03502379896523" height="176.03502379896523" width="395.52" id="textblock"><g><svg viewBox="0 0 395.52 176.03502379896523" height="176.03502379896523" width="395.52"><path d="M394.594 37.756C392.735 19.484 387.435 14.404 387.435 14.404 371.165-4.416 350.86-0.36 332.619 2.344 300.414 2.454 268.339 6.474 236.208 8.63 168.767 8.959 100.749 3.55 33.643 16.889 27.339 20.982-6.54 17.693 1.121 40.095 3.129 49.414 10.456 59.756 10.232 68.308 11.236 69.806 12.631 66.371 13.226 68.527 15.309 74.337 18.711 71.597 21.501 75.032 17.614 84.205 20.403 91.842 23.062 99.846 18.377 101.929 12.371 100.942 9.675 107.849 9.396 112.856 7.89 111.905 6.235 111.686 5.026 111.54 2.59 112.088 2.999 113.66 4.394 119.032-1.594 122.138 2.162 127.4-0.422 133.101 3.948 138.035 3.353 144.211 3.278 145.454 3.687 146.513 4.338 146.806 7.22 148.377 3.018 151.447 3.464 154.772 33.029 177.503 65.104 161.789 95.394 172.241 103.259 164.932 97.346 174.835 100.489 173.301 102.943 171.51 104.728 178.929 107.499 174.726 107.927 173.52 107.276 170.669 108.8 171.218 109.6 171.51 110.307 171.437 110.418 169.756 110.586 167.234 109.117 168.806 108.726 167.49 112.947 160.839 111.906 176.663 115.866 176.005 115.68 174.068 114.528 171.291 116.889 171.656 119.232 168.879 119.306 166.576 121.389 172.826 121.463 174.178 121.835 175.128 122.43 175.786 128.938 168.988 135.409 178.198 142.233 175.128 146.417 171.766 150.433 176.955 154.672 175.676 156.16 174.653 157.666 172.826 159.098 175.895 176.632 176.553 195.319 173.812 211.943 176.005 256.364 171.912 303.836 177.686 350.674 172.277 361.719 170.194 373.192 167.234 383.958 164.859 383.958 164.859 392.679 158.354 392.679 129.118S394.538 103.537 394.817 80.258C395.096 56.979 396.398 56.029 394.538 37.756Z" opacity="1" fill="#5ebc67" data-fill-palette-color="tertiary"></path><g transform="matrix(1,0,0,1,55.76832,26.230666666666668)"><svg width="283.98335999999995" viewBox="2.98 -37.5 88.08 38.33" height="123.5736904656319" data-palette-color="#ffffff"><path d="M22.22-27.49L22.22-27.49Q22.22-26.95 22.44-26.59 22.66-26.22 22.66-25.93L22.66-25.93Q22.56-25.44 22.85-24.78 23.14-24.12 23.14-23.44L23.14-23.44Q23.05-23.14 22.39-22.68 21.73-22.22 20.92-21.68 20.12-21.14 19.36-20.63 18.6-20.12 18.31-19.82L18.31-19.82Q18.55-19.43 18.92-19.19 19.29-18.95 19.63-18.7L19.63-18.7Q19.92-18.46 20.48-17.99 21.04-17.53 21.66-16.99 22.27-16.46 22.78-15.97 23.29-15.48 23.44-15.23L23.44-15.23Q23.54-15.19 23.61-14.89 23.68-14.6 23.73-14.23 23.78-13.87 23.8-13.53 23.83-13.18 23.83-13.09L23.83-13.09Q23.78-12.55 23.85-12.3 23.93-12.06 24-11.79 24.07-11.52 24.12-11.28 24.17-11.04 24.17-11.04L24.17-11.04Q24.17-10.74 23.9-10.5 23.63-10.25 23.39-10.06L23.39-10.06Q23.14-9.86 22.92-9.67 22.71-9.47 22.46-9.23L22.46-9.23Q22.17-8.98 21.8-8.76 21.44-8.54 21.14-8.3L21.14-8.3Q20.95-8.2 20.8-8.03 20.65-7.86 20.51-7.76L20.51-7.76Q20.07-7.37 19.53-7.01 18.99-6.64 18.51-6.35L18.51-6.35Q17.97-6.01 17.48-5.64 16.99-5.27 16.46-4.88L16.46-4.88Q15.72-4.44 15.01-4.03 14.31-3.61 13.62-3.17L13.62-3.17Q13.28-2.93 12.96-2.69 12.65-2.44 12.3-2.25L12.3-2.25Q11.33-1.71 10.35-1.12 9.38-0.54 8.45 0.15L8.45 0.15Q7.67 0.34 7.32 0.46 6.98 0.59 6.64 0.59L6.64 0.59Q6.35 0.59 6.27 0.37 6.2 0.15 6.01 0.15L6.01 0.15Q5.27 0.24 5.2 0.17 5.13 0.1 4.98 0L4.98 0Q4.25 0.1 3.76 0L3.76 0Q3.61-0.24 3.56-0.61 3.52-0.98 3.27-1.22L3.27-1.22Q3.37-1.71 3.3-2.15 3.22-2.59 3.32-3.03L3.32-3.03Q3.17-3.61 3.17-4.1L3.17-4.1Q3.17-4.74 3.32-5.42L3.32-5.42Q3.17-5.86 3.17-6.3L3.17-6.3Q3.17-6.69 3.22-7.08 3.27-7.47 3.27-7.86L3.27-7.86Q3.27-8.35 3.08-8.74L3.08-8.74Q3.08-9.62 3.05-10.47 3.03-11.33 3.03-12.21L3.03-12.21Q3.03-12.6 3.03-12.99 3.03-13.38 3.08-13.82L3.08-13.82Q3.03-14.06 3.03-14.55L3.03-14.55Q3.03-14.84 3.13-15.06 3.22-15.28 3.22-15.53L3.22-15.53Q3.22-16.06 3.15-16.55 3.08-17.04 3.08-17.58L3.08-17.58Q3.08-18.07 3.15-18.51 3.22-18.95 3.22-19.43L3.22-19.43Q3.08-19.63 3.03-19.87 2.98-20.12 2.98-20.36L2.98-20.36Q2.98-20.56 3.08-20.95L3.08-20.95Q3.08-21.34 3.03-21.78 2.98-22.22 2.98-22.61L2.98-22.61Q2.98-22.8 3-22.95 3.03-23.1 3.08-23.29L3.08-23.29Q2.98-23.63 2.98-23.97 2.98-24.32 2.98-24.66L2.98-24.66Q2.98-25.1 3.03-25.56 3.08-26.03 3.08-26.46L3.08-26.46Q3.03-27.2 3.1-27.61 3.17-28.03 3.22-28.47L3.22-28.47 3.22-31.25Q3.22-31.64 3.13-32.1 3.03-32.57 3.03-33.01L3.03-33.01Q3.03-33.25 3.08-33.74 3.13-34.23 3.22-34.47L3.22-34.47Q3.91-35.5 4.83-35.64L4.83-35.64Q5.03-35.74 5.13-35.91 5.22-36.08 5.57-36.08L5.57-36.08Q6.15-36.57 6.35-36.84 6.54-37.11 6.84-37.35L6.84-37.35Q6.98-37.35 7.1-37.43 7.23-37.5 7.42-37.5L7.42-37.5Q7.76-37.4 7.98-37.3 8.2-37.21 8.45-37.16L8.45-37.16Q9.42-36.43 10.38-35.72 11.33-35.01 12.3-34.23L12.3-34.23Q12.74-33.84 13.16-33.45 13.57-33.06 14.01-32.71L14.01-32.71Q14.26-32.57 14.55-32.42 14.84-32.28 15.09-32.08L15.09-32.08Q15.63-31.74 16.16-31.37 16.7-31.01 17.24-30.66L17.24-30.66 20.75-28.47Q21.14-28.22 21.51-27.98 21.88-27.73 22.22-27.49ZM15.23-25.39L15.23-25.39Q14.5-25.73 13.84-26.22 13.18-26.71 12.45-26.95L12.45-26.95Q12.06-27.34 11.62-27.49 11.18-27.64 10.79-27.93L10.79-27.93Q10.35-28.32 10.01-28.61 9.67-28.91 9.13-29.15L9.13-29.15Q8.89-27.64 8.76-26.2 8.64-24.76 8.64-23.29L8.64-23.29Q8.64-21.78 8.94-20.41L8.94-20.41Q9.47-20.65 9.96-20.95 10.45-21.24 10.94-21.53L10.94-21.53Q11.13-21.63 11.3-21.73 11.47-21.83 11.72-21.92L11.72-21.92Q11.96-22.12 12.21-22.31 12.45-22.51 12.7-22.66L12.7-22.66Q13.23-23.05 13.75-23.36 14.26-23.68 14.79-24.07L14.79-24.07Q15.04-24.27 15.33-24.39 15.63-24.51 15.92-24.76L15.92-24.76Q15.87-24.95 15.6-25.07 15.33-25.2 15.23-25.39ZM13.82-16.26L13.82-16.26Q13.67-16.26 13.53-16.33 13.38-16.41 13.18-16.41L13.18-16.41Q12.6-16.02 12.08-15.75 11.57-15.48 11.04-15.14L11.04-15.14Q10.79-14.99 10.55-14.79 10.3-14.6 10.06-14.5L10.06-14.5Q9.42-14.11 9.08-13.84 8.74-13.57 8.54-13.18L8.54-13.18Q8.64-11.82 8.62-10.45 8.59-9.08 8.59-7.67L8.59-7.67Q8.59-7.42 8.74-7.13L8.74-7.13Q9.18-7.18 10.3-7.79 11.43-8.4 12.67-9.18 13.92-9.96 15.06-10.69 16.21-11.43 16.75-11.77L16.75-11.77Q17.14-11.87 17.65-12.16 18.16-12.45 18.26-12.84L18.26-12.84Q17.33-13.92 16.11-14.62 14.89-15.33 13.82-16.26ZM46.24-8.35L46.24-8.35Q46.58-7.91 46.65-7.64 46.73-7.37 46.82-7.1 46.92-6.84 46.99-6.59 47.07-6.35 47.07-6.3L47.07-6.3Q47.07-5.96 46.95-5.74 46.82-5.52 46.58-5.18L46.58-5.18Q44.63-4.44 42.72-3.74 40.82-3.03 38.82-2.34L38.82-2.34Q38.28-2.2 37.84-2.03 37.4-1.86 36.86-1.76L36.86-1.76Q36.77-1.66 36.55-1.59 36.33-1.51 36.03-1.42 35.74-1.32 35.47-1.25 35.2-1.17 35.1-1.17L35.1-1.17Q34.71-1.07 34.25-1.1 33.79-1.12 33.35-1.07L33.35-1.07Q33.1-1.03 33.01-0.83 32.91-0.63 32.79-0.42 32.66-0.2 32.42-0.02 32.18 0.15 31.74 0.15L31.74 0.15Q31.3 0.15 30.86 0.1 30.42 0.05 29.93-0.15L29.93-0.15Q29.83-0.29 29.86-0.51 29.88-0.73 29.78-0.88L29.78-0.88Q29.34-0.93 29.1-0.81 28.85-0.68 28.61-0.63L28.61-0.63Q28.46-0.83 28.39-1.1 28.32-1.37 28.12-1.56L28.12-1.56Q28.07-1.81 28.07-2.05 28.07-2.29 28.07-2.54L28.07-2.54Q28.07-2.88 28.1-3.34 28.12-3.81 28.27-4.05L28.27-4.05Q28.42-6.84 28.42-9.64 28.42-12.45 28.42-15.23L28.42-15.23Q28.42-15.48 28.42-15.94 28.42-16.41 28.39-16.89 28.37-17.38 28.34-17.8 28.32-18.21 28.27-18.41L28.27-18.41Q28.32-18.75 28.32-19.07 28.32-19.38 28.32-19.73L28.32-19.73Q28.32-20.02 28.32-20.26 28.32-20.51 28.22-20.75L28.22-20.75Q28.27-20.95 28.27-21.29L28.27-21.29Q28.27-21.53 28.22-21.78 28.17-22.02 28.17-22.27L28.17-22.27Q28.17-22.66 28.2-23.02 28.22-23.39 28.22-23.78L28.22-23.78Q28.22-25.05 28.1-26.29 27.98-27.54 27.98-28.81L27.98-28.81Q27.98-30.47 27.95-32.13 27.93-33.79 27.88-35.45L27.88-35.45Q28.07-35.94 28.07-36.28L28.07-36.28Q28.76-36.62 29.15-36.52 29.54-36.43 29.93-36.43L29.93-36.43Q30.17-36.43 30.37-36.47 30.56-36.52 30.76-36.62L30.76-36.62Q31-36.57 31.17-36.5 31.35-36.43 31.59-36.43L31.59-36.43Q32.32-36.57 32.39-36.47 32.47-36.38 32.61-36.28L32.61-36.28Q32.81-36.33 32.93-36.45 33.05-36.57 33.25-36.57L33.25-36.57Q33.54-36.57 33.69-36.21 33.84-35.84 34.03-35.6L34.03-35.6Q34.03-35.06 34.23-34.62L34.23-34.62Q34.32-32.62 34.3-30.66 34.27-28.71 34.42-26.76L34.42-26.76Q34.47-25.88 34.54-24.93 34.62-23.97 34.62-23.1L34.62-23.1Q34.62-21.63 34.64-20.14 34.67-18.65 34.67-17.14L34.67-17.14Q34.67-16.89 34.69-16.7 34.71-16.5 34.71-16.26L34.71-16.26Q34.71-15.67 34.67-15.14 34.62-14.6 34.62-14.06L34.62-14.06 34.62-10.25Q34.62-9.77 34.59-9.25 34.57-8.74 34.62-8.25L34.62-8.25 34.81-7.67Q35.35-7.86 35.91-8.08 36.47-8.3 37.11-8.4L37.11-8.4Q37.5-8.5 37.84-8.59 38.18-8.69 38.57-8.79L38.57-8.79Q39.26-9.18 39.65-9.33 40.04-9.47 40.43-9.62L40.43-9.62Q41.26-9.91 42.04-10.23 42.82-10.55 43.65-10.84L43.65-10.84Q44.04-10.74 44.28-10.94L44.28-10.94Q44.77-10.84 45.16-10.84L45.16-10.84Q45.7-10.3 45.82-10.01 45.94-9.72 46.19-9.47L46.19-9.47Q46.09-9.23 46.21-9.18 46.34-9.13 46.38-8.94L46.38-8.94Q46.58-8.84 46.43-8.67 46.29-8.5 46.24-8.35ZM64.69-5.62L64.69-5.62Q64.59-5.32 64.59-5.08L64.59-5.08Q64.59-4.79 64.67-4.49 64.74-4.2 64.74-3.91L64.74-3.91Q64.64-3.03 64.59-2.83L64.59-2.83Q64.3-2.59 63.4-2.27 62.5-1.95 61.25-1.64 60-1.32 58.56-1 57.12-0.68 55.81-0.39 54.49-0.1 53.39 0.12 52.29 0.34 51.75 0.44L51.75 0.44Q51.51 0.49 51.29 0.56 51.07 0.63 50.83 0.73L50.83 0.73Q50.58 0.78 50.34 0.76 50.09 0.73 49.85 0.83L49.85 0.83Q49.7 0.83 49.58 0.68 49.46 0.54 49.36 0.44L49.36 0.44Q49.36 0.15 49.26 0 49.16-0.15 49.04-0.24 48.92-0.34 48.82-0.46 48.73-0.59 48.73-0.88L48.73-0.88Q48.63-1.27 48.46-1.49 48.29-1.71 48.29-1.9L48.29-1.9Q48.09-2.54 48.09-3.03L48.09-3.03Q48.09-3.27 48.14-3.42 48.19-3.56 48.29-3.71L48.29-3.71Q48.58-3.81 48.73-3.96 48.87-4.1 49.12-4.2L49.12-4.2Q49.41-4.35 49.95-4.47 50.48-4.59 51.12-4.74 51.75-4.88 52.34-5.03 52.92-5.18 53.32-5.32L53.32-5.32Q53.46-5.37 53.61-5.37 53.75-5.37 53.85-5.47L53.85-5.47Q53.75-6.25 53.73-7.03 53.71-7.81 53.61-8.54L53.61-8.54Q53.61-8.89 53.56-9.23 53.51-9.57 53.51-9.86L53.51-9.86 53.56-10.89Q53.56-12.74 53.41-14.6 53.27-16.46 53.27-18.31L53.27-18.31 53.27-19.97Q53.27-20.36 53.24-20.7 53.22-21.04 53.22-21.44L53.22-21.44Q53.22-22.36 53.24-23.22 53.27-24.07 53.27-25L53.27-25 53.27-29.49Q52.19-29.74 51.26-29.47 50.34-29.2 49.36-29.1L49.36-29.1Q49.02-29.44 48.97-29.83L48.97-29.83Q48.58-30.37 48.43-30.52 48.29-30.66 48.09-31.35L48.09-31.35Q47.75-32.03 47.53-32.2 47.31-32.37 47.31-32.76L47.31-32.76Q47.31-33.01 47.43-33.11 47.55-33.2 47.65-33.45L47.65-33.45Q48.09-33.64 48.16-33.72 48.24-33.79 48.33-33.84L48.33-33.84Q48.82-34.18 49.46-34.33 50.09-34.47 50.68-34.67L50.68-34.67Q51.17-34.81 51.61-35.01 52.05-35.21 52.58-35.35L52.58-35.35Q53.22-35.55 53.85-35.74 54.49-35.94 55.07-36.08L55.07-36.08Q55.46-36.18 55.83-36.16 56.2-36.13 56.59-36.38L56.59-36.38Q57.22-36.28 57.93-36.4 58.64-36.52 59.47-36.72 60.3-36.91 61.08-37.06 61.86-37.21 62.25-37.3L62.25-37.3Q62.5-37.21 62.59-37.06 62.69-36.91 62.89-36.87L62.89-36.87Q62.93-36.72 62.98-36.5 63.03-36.28 63.18-36.18L63.18-36.18Q63.18-35.64 63.42-35.4L63.42-35.4Q63.37-34.91 63.59-34.3 63.81-33.69 63.81-33.15L63.81-33.15Q63.57-32.42 63.01-32.23 62.45-32.03 61.79-31.88 61.13-31.74 60.49-31.62 59.86-31.49 59.47-31.35L59.47-31.35Q59.47-30.66 59.49-29.93 59.52-29.2 59.52-28.47L59.52-28.47Q59.52-27.78 59.49-27.1 59.47-26.42 59.47-25.73L59.47-25.73Q59.47-24.71 59.44-23.63 59.42-22.56 59.42-21.48L59.42-21.48Q59.42-19.97 59.47-18.46 59.52-16.94 59.61-15.43L59.61-15.43Q59.66-15.19 59.66-14.7L59.66-14.7Q59.66-12.74 59.74-10.86 59.81-8.98 60-6.98L60-6.98Q60.64-6.93 60.98-7.18L60.98-7.18Q61.23-7.18 61.45-7.28 61.66-7.37 61.86-7.47L61.86-7.47Q62.15-7.52 62.67-7.64 63.18-7.76 63.33-7.76L63.33-7.76Q63.76-7.71 63.86-7.76L63.86-7.76Q64.01-7.47 64.3-7.32L64.3-7.32Q64.4-6.88 64.47-6.47 64.55-6.05 64.69-5.62ZM73.38-35.5L73.38-35.5Q73.58-35.55 73.72-35.64 73.87-35.74 74.06-35.74L74.06-35.74Q74.21-35.69 74.28-35.55 74.36-35.4 74.5-35.3L74.5-35.3Q74.65-35.4 74.77-35.5 74.89-35.6 75.04-35.64L75.04-35.64Q75.53-35.5 75.58-35.16L75.58-35.16Q75.82-35.06 76.02-34.94 76.21-34.81 76.46-34.77L76.46-34.77Q76.56-34.57 76.7-34.47 76.85-34.38 77.04-34.18L77.04-34.18Q77.53-34.08 78.34-33.64 79.14-33.2 79.63-32.96L79.63-32.96Q80.12-32.71 80.61-32.47 81.1-32.23 81.54-31.93L81.54-31.93Q81.97-31.69 82.41-31.37 82.85-31.05 83.34-30.86L83.34-30.86Q83.78-30.32 84.47-30.18 85.15-30.03 85.69-29.64L85.69-29.64Q86.13-29.39 86.52-29.13 86.91-28.86 87.3-28.61L87.3-28.61Q87.44-28.37 87.66-28.22 87.88-28.08 88.08-27.83L88.08-27.83Q89.06-27.29 89.2-27L89.2-27Q89.35-26.9 89.64-26.71 89.93-26.51 90.23-26.29 90.52-26.07 90.76-25.85 91.01-25.63 91.06-25.44L91.06-25.44Q90.86-25 90.86-24.73 90.86-24.46 90.67-24.27L90.67-24.27Q90.96-23.88 90.96-23.54L90.96-23.54Q90.72-22.95 90.13-22.56L90.13-22.56Q89.98-22.17 89.67-21.95 89.35-21.73 89.25-21.34L89.25-21.34Q88.86-21.09 88.79-20.95 88.71-20.8 88.62-20.65L88.62-20.65Q87.69-19.68 86.88-18.97 86.08-18.26 85.39-17.43L85.39-17.43Q84.9-17.19 84.56-16.82 84.22-16.46 83.93-16.02L83.93-16.02Q83.54-15.63 83.17-15.26 82.81-14.89 82.41-14.55L82.41-14.55Q82.32-14.36 82.1-14.23 81.88-14.11 81.78-13.87L81.78-13.87Q81.24-13.62 80.9-13.18 80.56-12.74 80.07-12.45L80.07-12.45 79.73-11.96Q79.58-11.87 79.31-11.65 79.05-11.43 78.78-11.16 78.51-10.89 78.31-10.64 78.12-10.4 78.07-10.25L78.07-10.25Q77.92-10.21 77.6-9.96 77.29-9.72 76.97-9.42 76.65-9.13 76.38-8.84 76.12-8.54 76.07-8.45L76.07-8.45 75.58-8.11Q75.63-6.79 75.65-5.44 75.68-4.1 75.68-2.78L75.68-2.78 75.68-1.12 75.33-0.68Q75.09-0.68 74.94-0.78 74.8-0.88 74.6-0.88L74.6-0.88Q74.41-0.88 74.24-0.68 74.06-0.49 73.92-0.39L73.92-0.39Q73.58-0.34 73.36-0.22 73.14-0.1 72.89 0L72.89 0Q72.6-0.15 72.31-0.15L72.31-0.15Q71.67 0 71.7-0.1 71.72-0.2 71.48-0.2L71.48-0.2Q71.09 0.2 70.99 0.2L70.99 0.2Q70.79 0.2 70.62 0.24 70.45 0.29 70.26 0.29L70.26 0.29Q70.06-0.1 69.94-0.51 69.82-0.93 69.47-1.32L69.47-1.32Q69.62-1.81 69.43-2L69.43-2Q69.72-2.54 69.67-3.22 69.62-3.91 69.62-4.49L69.62-4.49Q69.62-4.83 69.65-5.15 69.67-5.47 69.67-5.76L69.67-5.76Q69.67-6.35 69.57-6.96 69.47-7.57 69.47-8.2L69.47-8.2Q69.47-9.67 69.57-11.16 69.67-12.65 69.67-14.11L69.67-14.11Q69.67-14.94 69.6-15.82 69.52-16.7 69.52-17.53L69.52-17.53Q69.52-18.07 69.57-18.53 69.62-18.99 69.67-19.43L69.67-19.43Q69.67-21.68 69.74-23.75 69.82-25.83 69.82-27.88L69.82-27.88Q69.82-28.56 69.79-29.17 69.77-29.79 69.77-30.47L69.77-30.47Q69.77-30.81 69.82-31.15 69.87-31.49 69.87-31.84L69.87-31.84Q70.01-33.35 70.01-34.86L70.01-34.86 69.96-35.64Q70.16-35.94 70.55-35.94L70.55-35.94Q71.09-35.94 71.38-35.6L71.38-35.6Q71.72-35.64 72.04-35.72 72.36-35.79 72.65-35.79L72.65-35.79Q73.09-35.79 73.38-35.5ZM76.36-27.88L76.26-27.73Q76.26-27.49 76.21-27.37 76.16-27.25 76.12-27.15L76.12-27.15Q76.12-27 76.14-26.83 76.16-26.66 76.16-26.46L76.16-26.46Q76.16-25.34 76.14-24.24 76.12-23.14 76.12-22.07L76.12-22.07 76.02-19.48Q76.02-19.24 76.07-18.95 76.12-18.65 76.12-18.41L76.12-18.41Q76.12-18.16 76.07-17.92 76.02-17.68 76.02-17.43L76.02-17.43Q76.02-16.8 76.16-16.16L76.16-16.16Q76.41-16.26 76.51-16.48 76.6-16.7 76.75-16.85L76.75-16.85Q77.87-17.87 78.85-18.99 79.83-20.12 80.85-21.24L80.85-21.24Q81.73-22.17 82.37-22.75 83-23.34 83.34-24.17L83.34-24.17Q82.51-24.71 81.63-25.27 80.75-25.83 79.78-26.22L79.78-26.22Q79.73-26.32 79.51-26.46 79.29-26.61 79.05-26.73 78.8-26.86 78.56-26.95 78.31-27.05 78.22-27.05L78.22-27.05Q77.78-27.44 77.29-27.54L77.29-27.54Q76.95-27.54 76.7-27.66 76.46-27.78 76.36-27.88L76.36-27.88Z" opacity="1" transform="matrix(1,0,0,1,0,0)" fill="#ffffff" class="wordmark-text-0" data-fill-palette-color="quaternary" id="text-0"></path></svg></g></svg></g></svg></g></svg></g><g></g></svg></g><defs></defs></svg><rect width="395.52" height="176.03502379896523" fill="none" stroke="none" visibility="hidden"></rect></g></svg></g></svg>